<?xml version="1.0" encoding="UTF-8"?><svg viewBox="0 0 48 48" xmlns="http://www.w3.org/2000/svg"><defs><style>.cls-3{stroke:#ffb52b;stroke-width:2px;stroke-linecap:round;stroke-linejoin:round;fill:none}</style></defs><g transform="translate(-208 -3236)" data-name="Group 22165"><g transform="translate(208 3236)" data-name="Group 21417"><path transform="translate(-39 -19.499)" d="M53.757 50.814a15 15 0 1 1 18.508-.014 4.554 4.554 0 0 0-1.765 3.57v1.13A1.5 1.5 0 0 1 69 57H57a1.5 1.5 0 0 1-1.5-1.5v-1.131a4.519 4.519 0 0 0-1.743-3.555z" fill="#ffe6bd" stroke="#ffb52b" stroke-linecap="round" stroke-linejoin="round" stroke-width="2px" data-name="Path 17552"/><path d="M0 0h48v48H0z" fill="none" data-name="Rectangle 7950"/><path class="cls-3" transform="translate(16.5 43.5)" d="m0 0h15" data-name="Line 495"/><path class="cls-3" transform="translate(24 27)" d="M0 10.5V0" data-name="Line 496"/><g transform="translate(18 21)" stroke="#ffb52b" stroke-width="2px" data-name="Group 21420"><path transform="translate(-96 -112)" d="m96 112 6 6 6-6" fill="#ffb52b" stroke-linecap="round" stroke-linejoin="round" data-name="Path 17551"/><path transform="translate(1)" d="m0 0h10" fill="none" stroke-linecap="square" data-name="Line 497"/></g></g></g></svg>