<svg width="32" height="32" viewBox="0 0 32 32" fill="none" xmlns="http://www.w3.org/2000/svg">
<g clip-path="url(#clip0_933_5586)">
<path d="M16 28C22.6274 28 28 22.6274 28 16C28 9.37258 22.6274 4 16 4C9.37258 4 4 9.37258 4 16C4 22.6274 9.37258 28 16 28Z" stroke="#506B6A" stroke-width="2" stroke-linecap="round" stroke-linejoin="round"/>
<path d="M11.5 15C12.3284 15 13 14.3284 13 13.5C13 12.6716 12.3284 12 11.5 12C10.6716 12 10 12.6716 10 13.5C10 14.3284 10.6716 15 11.5 15Z" fill="#506B6A"/>
<path d="M20.5 15C21.3284 15 22 14.3284 22 13.5C22 12.6716 21.3284 12 20.5 12C19.6716 12 19 12.6716 19 13.5C19 14.3284 19.6716 15 20.5 15Z" fill="#506B6A"/>
<path d="M21.2 19C20.6714 19.9107 19.9128 20.6667 19.0003 21.1922C18.0877 21.7176 17.0531 21.9942 16 21.9942C14.947 21.9942 13.9124 21.7176 12.9998 21.1922C12.0873 20.6667 11.3287 19.9107 10.8 19" stroke="#506B6A" stroke-width="2" stroke-linecap="round" stroke-linejoin="round"/>
</g>
<defs>
<clipPath id="clip0_933_5586">
<rect width="32" height="32" fill="white"/>
</clipPath>
</defs>
</svg>
