<?xml version="1.0" encoding="UTF-8"?><svg fill="none" viewBox="0 0 24 24" xmlns="http://www.w3.org/2000/svg"><path d="m19.999 4.0496v-0.04962h-0.0855-0.0954-2.1712-6.4567-0.3877-0.0756l-1.0206 1.0222c-0.12757 0.12654-0.25514 0.25309-0.38147 0.38087-1.1284 1.1314-2.2542 2.2678-3.3838 3.398-0.56851 0.5682-1.1445 1.1277-1.7167 1.6922-0.00248 0.0012-0.00371 0.0037-0.00495 0.0062l-0.21923 0.2134 0.00124 0.0012h-0.00124v9.2859h0.04707 1.0441 8.0954c0.0991-0.0868 0.2031-0.17 0.2972-0.263 1.1829-1.1823 2.3632-2.3683 3.5473-3.5494 0.4992-0.4974 1.007-0.9875 1.5074-1.4837 0.3951-0.3908 0.7865-0.7841 1.1766-1.1798 0.1004-0.1005 0.1895-0.2122 0.2837-0.3189v-0.2803-5.3619c0-1.155 0-2.3112 0.0012-3.4662-0.0012-0.01489 0-0.03226-0.0012-0.04715zm-9.49 12.933c0 0.1786-0.0038 0.1823-0.1796 0.1823-0.96242 0-1.9248 0-2.8872 0.0013-0.1635 0-0.32576 0.0099-0.48925 0.0124-0.13129 0.0025-0.18951-0.0571-0.18951-0.196 0.00372-1.1042 0.00372-2.2083 0-3.3124 0-0.1278 0.04336-0.1948 0.17588-0.1923 0.04212 0.0012 0.08423-0.0037 0.12634-0.0037h3.2092c0.2241 0 0.2328 0.0099 0.2328 0.2394v1.614c0.0013 0.5508 0.0013 1.1029 0.0013 1.655zm5.8894-8.5577h-0.0025c0 2.4204 0 4.8408 0.0025 7.2612l-3.1559 3.1611v-0.3548l0.0012-0.0013v-7.7661h-8.078l3.0605-3.0655c0.03468-0.00745 0.07184-0.01241 0.11148-0.01241 2.2134 0.00248 4.4255 0.00248 6.6388 0v-0.00124h1.4231v0.7791h-0.0012z" fill="#0245B9"/></svg>